<svg id="Layer_1" data-name="Layer 1" xmlns="http://www.w3.org/2000/svg" viewBox="0 0 4000 2600"><defs><style>.cls-1{fill:#fff;}.cls-2{fill:#171738;}.cls-3{fill:#03b9ff;}</style></defs><title>hiverse 04cyan icon blackfont white bg-01-01-01</title><rect class="cls-1" width="4000" height="2600"/><polygon class="cls-2" points="1680.57 1278.76 1540.7 1278.76 1540.7 1164.13 1489.37 1164.13 1489.37 1450.92 1540.7 1450.92 1540.7 1322.57 1680.57 1322.57 1680.57 1450.92 1731.91 1450.92 1731.91 1164.13 1680.57 1164.13 1680.57 1278.76"/><path class="cls-2" d="M1816.44,1144.65a29.47,29.47,0,0,0-29.65,29.65,29.34,29.34,0,0,0,8.63,21.25,28.24,28.24,0,0,0,21,8.84,30.2,30.2,0,0,0,30.09-30.09,28.21,28.21,0,0,0-8.85-21A29.37,29.37,0,0,0,1816.44,1144.65Z"/><rect class="cls-2" x="1791.66" y="1231.84" width="49.12" height="219.09"/><path class="cls-2" d="M1944.78,1275.21v-43.37h-49.12v219.09h49.12v-89.41q0-80.57,79.22-80.55v-53.56q-32.31,0-52,14.16T1944.78,1275.21Z"/><path class="cls-2" d="M2157.67,1227.41q-47.37,0-80.11,33.41t-32.75,80.78q0,52.25,34.51,83t83.66,30.77q44.7,0,83.2-26.12l-19.48-36.29q-27,19-62.83,19-25.68,0-44.27-13.94t-23.89-39.17h166l1.32-19q0-46.49-30.75-79.45T2157.67,1227.41Zm-62.41,95.16q4.86-23.46,21.69-37.84t38.07-14.39q23,0,39.82,14.39t20.37,37.84Z"/><path class="cls-2" d="M2409,1342.9a521.08,521.08,0,0,0-19.46,58.44l-2.23-8.4q-2.22-8.39-7.08-23.22t-10.18-27.21l-45.53-110.67h-49.13l90.3,219.52H2413l90.3-219.52h-49.12Z"/><path class="cls-2" d="M2626.38,1227.41q-47.39,0-80.12,33.41t-32.76,80.78q0,52.25,34.54,83t83.64,30.77q44.71,0,83.22-26.12l-19.48-36.29q-27,19-62.86,19-25.67,0-44.26-13.94t-23.9-39.17h166l1.33-19q0-46.49-30.77-79.45T2626.38,1227.41ZM2564,1322.57q4.86-23.46,21.68-37.84t38.07-14.39q23,0,39.83,14.39t20.36,37.84Z"/><path class="cls-2" d="M2825.09,1275.21v-43.37H2776v219.09h49.12v-89.41q0-80.57,79.22-80.55v-53.56q-32.31,0-52,14.16T2825.09,1275.21Z"/><path class="cls-2" d="M3083.56,1338.46q-23-16.08-60-24.14c-8.57-2-14.95-3.45-19.09-4.41a34.28,34.28,0,0,1-12.48-6.05q-6.26-4.59-6.26-11.6c0-5.53,3.32-10.07,9.95-13.56a48.19,48.19,0,0,1,22.79-5.27q31,0,59.76,16.39L3096.4,1250q-38.07-22.57-78.34-22.57-31.86,0-57.1,17.93t-25.23,48q0,15.5,5.76,26.78A48,48,0,0,0,2959.2,1339a101,101,0,0,0,23.8,11.2l30,9.36,7.21,2.24,7,2.16,6.33,2a60.11,60.11,0,0,1,6.47,2.36c1.61.75,3.44,1.57,5.51,2.45a14.42,14.42,0,0,1,4.64,2.89q1.55,1.54,3.31,3.54a11.29,11.29,0,0,1,2.43,4.22,16.77,16.77,0,0,1,.66,4.89q0,10.63-13.27,16.87t-30.11,6.2q-37.17,0-69.48-26.11l-18.58,40.28q12.38,12,35.17,21.9t52.89,10q35.87,0,64.63-17.48t28.77-52.45Q3106.58,1354.56,3083.56,1338.46Z"/><path class="cls-2" d="M3357.52,1339.83q0-46.49-30.76-79.45t-74.57-33q-47.36,0-80.11,33.41t-32.75,80.78q0,52.25,34.52,83t83.65,30.77q44.7,0,83.21-26.12l-19.48-36.29q-27,19-62.84,19-25.68,0-44.26-13.94t-23.91-39.17h166Zm-167.74-17.26q4.86-23.46,21.68-37.84t38.08-14.39q23,0,39.82,14.39t20.37,37.84Z"/><path class="cls-3" d="M1260.11,1059.79h-80.94a115.88,115.88,0,0,0-94.86,49.38l-10,14.23L1052,1155.31a52.2,52.2,0,0,1-85.53,0l-22.36-31.91-10-14.23a115.88,115.88,0,0,0-94.85-49.38h-81a116,116,0,0,0-115.83,115.83v248.76a116,116,0,0,0,115.83,115.83h81a115.88,115.88,0,0,0,94.85-49.38l10-14.23,22.36-31.91a52.2,52.2,0,0,1,85.53,0l22.37,31.91,10,14.23a115.88,115.88,0,0,0,94.86,49.38h80.94a116,116,0,0,0,115.83-115.83V1175.62A116,116,0,0,0,1260.11,1059.79Zm52.23,268.41v96.18a52.28,52.28,0,0,1-52.23,52.22h-80.94a52.21,52.21,0,0,1-42.77-22.27l-32.32-46.14a115.82,115.82,0,0,0-189.75,0L882,1454.35a52.29,52.29,0,0,1-42.76,22.25h-81a52.27,52.27,0,0,1-52.22-52.22V1175.62a52.27,52.27,0,0,1,52.22-52.22h81A52.29,52.29,0,0,1,882,1145.65l32.31,46.14a115.82,115.82,0,0,0,189.75,0l32.32-46.14a52.21,52.21,0,0,1,42.77-22.27h80.94a52.28,52.28,0,0,1,52.23,52.22Z"/><path class="cls-3" d="M1009.21,1256.44a43.56,43.56,0,1,0,43.56,43.56A43.56,43.56,0,0,0,1009.21,1256.44Z"/></svg>