<svg xmlns="http://www.w3.org/2000/svg" viewBox="630 1045 760 520">
  <path fill="#03b9ff" d="M1260.11,1059.79h-80.94a115.88,115.88,0,0,0-94.86,49.38l-10,14.23L1052,1155.31a52.2,52.2,0,0,1-85.53,0l-22.36-31.91-10-14.23a115.88,115.88,0,0,0-94.85-49.38h-81a116,116,0,0,0-115.83,115.83v248.76a116,116,0,0,0,115.83,115.83h81a115.88,115.88,0,0,0,94.85-49.38l10-14.23,22.36-31.91a52.2,52.2,0,0,1,85.53,0l22.37,31.91,10,14.23a115.88,115.88,0,0,0,94.86,49.38h80.94a116,116,0,0,0,115.83-115.83V1175.62A116,116,0,0,0,1260.11,1059.79Zm52.23,268.41v96.18a52.28,52.28,0,0,1-52.23,52.22h-80.94a52.21,52.21,0,0,1-42.77-22.27l-32.32-46.14a115.82,115.82,0,0,0-189.75,0L882,1454.35a52.29,52.29,0,0,1-42.76,22.25h-81a52.27,52.27,0,0,1-52.22-52.22V1175.62a52.27,52.27,0,0,1,52.22-52.22h81A52.29,52.29,0,0,1,882,1145.65l32.31,46.14a115.82,115.82,0,0,0,189.75,0l32.32-46.14a52.21,52.21,0,0,1,42.77-22.27h80.94a52.28,52.28,0,0,1,52.23,52.22Z"/>
  <path fill="#03b9ff" d="M1009.21,1256.44a43.56,43.56,0,1,0,43.56,43.56A43.56,43.56,0,0,0,1009.21,1256.44Z"/>
</svg>
